<?xml version="1.0" encoding="UTF-8"?>
<svg id="Layer_1" data-name="Layer 1" xmlns="http://www.w3.org/2000/svg" viewBox="0 0 902.73 205.42">
  <defs>
    <style>
      .cls-1 {
        fill: #1b1c1c;
      }
    </style>
  </defs>
  <path class="cls-1" d="m541.22,174V15.97l-38.14,21.68.75,1.5c15.2-6.98,18.45-6.73,18.45,9.47v125.37c0,8.72-1.75,12.46-5.73,14.71v1.74h30.41v-1.74c-3.74-2.24-5.73-5.98-5.73-14.71Z"/>
  <path class="cls-1" d="m691.64,92.49c16.14-5.73,43.3-18.2,43.3-41.38s-22.59-37.64-48.95-37.64c-12.42,0-23.79,3.03-32.95,8.11-8.62-5.27-19.72-8.11-31.58-8.11-30.66,0-54.87,18.44-55.41,40.63-.54,20.44,13.99,32.9,32.28,42.87-22.32,9.22-48.68,25.67-48.68,52.09s29.85,42.87,67.78,42.87c10.99,0,21.24-1.77,30.25-4.93,10.01,3.25,21.7,4.93,34.28,4.93,37.65,0,66.7-20.69,66.7-47.36s-29.59-39.38-57.02-52.09Zm-8.88-76.52c13.72,0,34.43,9.22,35.23,32.4,1.08,21.44-10.49,35.64-28.51,43.12-11.1-5.26-21.78-10.68-29.86-17.27,6.35-6.13,10.78-13.74,10.78-23.11,0-11.27-5.13-20.33-13.33-26.74,7.63-5.8,17.62-8.4,25.69-8.4Zm-51.37,124.38c0-9.12,2.67-16.93,7.29-23.5,17.88,9.59,31.66,20.92,30.39,39.7-.8,12.17-7.91,19.89-16.61,24.74-12.26-7.28-21.07-20.15-21.07-40.94Zm13.99-94.47c.31-4.95,1.73-9.21,3.88-12.85,2.43,4.23,4,9.31,4.21,15.34.32,6.37-.48,12.09-2.23,17.19-4.08-5.6-6.32-12.03-5.86-19.68Zm-.55,38.85c5.14,4.59,11.33,8.59,18.03,12.24-4.36,1.8-8.86,3.88-13.3,6.25-7.21-3.76-14.91-7.24-22.45-10.73,5.19-1.84,11.52-4.39,17.72-7.76Zm-63.98-38.85c1.35-21.19,22.59-29.91,37.39-29.91,8.3,0,19.16,3.39,26.62,11.19-8.69,7.21-14.02,16.67-14.27,26.94-.29,11.08,3.85,19.81,10.61,27.08-4.45,4.27-9.95,7.7-16.24,10.31-23.67-11.22-45.45-23.18-44.11-45.61Zm39.27,143.32c-25.55,0-53.25-11.96-53.25-48.85,0-20.69,13.72-34.65,32.81-42.62,10.72,5.79,22.61,10.83,33.47,16.27-10.94,8.97-18.97,20.5-18.97,35.08,0,17.04,11.34,29.35,28.91,36.29-9.32,3.1-18.59,3.84-22.97,3.84Zm113.48-32.65c-1.88,28.66-38.73,32.65-48.95,32.65-9.67,0-19.64-1.72-28.3-5.84,16.97-8.48,27.78-22.51,27.78-38.77,0-18.77-14.39-30.51-32.41-40.21,3.79-2.55,7.99-4.77,12.49-6.65,30.93,16.7,71.54,27.17,69.39,58.82Z"/>
  <path class="cls-1" d="m815.32,13.48c-35.39,0-68.05,39.88-68.05,89.23,0,52.84,30.66,89.23,68.05,89.23,35.39,0,68.05-40.13,68.05-89.23,0-52.34-30.16-89.23-68.05-89.23Zm1.53,174.43c-33.08-4.44-49.9-49.38-50.63-94.55-.68-44.93,15.28-80.23,47.81-75.91,32.84,4.5,49.65,49.44,50.33,94.36.73,45.17-15.46,80.53-47.51,76.1Z"/>
  <path class="cls-1" d="m153.71,45.01c-6.98-7.73-15.21-14.08-24.68-19.07-9.47-4.99-19.69-8.06-30.66-9.22-1-.16-2.04-.29-3.11-.37-1.08-.08-2.2-.12-3.37-.12l-72.53-.25v11.47h11.22v163.01h61.57c3.15,0,6.23-.25,9.22-.75,10.47-1.5,20.27-4.82,29.41-9.97,9.14-5.15,17.07-11.55,23.8-19.19,6.73-7.64,12-16.33,15.83-26.05,3.82-9.72,5.73-20.06,5.73-31.03s-1.99-21.72-5.98-31.78c-3.99-10.05-9.47-18.94-16.45-26.67Zm-5.73,87.79c-3.99,9.15-9.39,17.14-16.2,23.97-6.82,6.82-14.79,12.23-23.93,16.23-9.14,4-18.94,5.99-29.41,5.99h-25.92V27.68h25.92c10.47,0,20.27,2,29.41,5.99,9.14,4,17.11,9.41,23.93,16.23,6.81,6.82,12.21,14.82,16.2,23.97,3.99,9.15,5.98,18.97,5.98,29.46s-1.99,20.31-5.98,29.46Z"/>
  <path class="cls-1" d="m243.6,28.18c12.21.67,23.39,1.66,33.53,2.99l8.97-15.2h-112.74v11.47l10.3-.5v163.51h102.44l-8.97-15.45c-10.14,1.33-21.31,2.33-33.53,2.99-12.21.67-25.05,1-38.51,1v-76.02h53.34l6.73-11.96h-60.07V27.19c13.46,0,26.3.33,38.51,1Z"/>
  <polygon class="cls-1" points="419.08 153.31 362.75 79.03 358.26 73.3 358.26 73.55 314.64 15.97 291.71 15.97 291.71 27.93 302.93 27.93 302.93 190.45 315.14 190.45 315.14 53.11 371.47 127.39 375.96 133.12 375.96 132.87 419.58 190.45 431.29 190.45 431.29 27.44 442.51 27.44 442.51 15.97 419.08 15.97 419.08 153.31"/>
</svg>